<svg width="175" height="27" viewBox="0 0 175 27" fill="none" xmlns="http://www.w3.org/2000/svg">
<path d="M31.0496 21L33.4918 8.72416H28.6506L29.2342 5.87132H42.4177L41.8342 8.72416H37.0146L34.5508 21H31.0496ZM45.9509 21.1729C44.7694 21.1729 43.7392 20.9568 42.8603 20.5245C41.9814 20.0923 41.297 19.4871 40.8071 18.7091C40.3316 17.931 40.0939 17.0161 40.0939 15.9643C40.0939 14.6676 40.3965 13.5149 41.0016 12.5063C41.6068 11.4833 42.4352 10.6765 43.487 10.0857C44.5533 9.495 45.7636 9.19963 47.1179 9.19963C48.3138 9.19963 49.344 9.41575 50.2085 9.848C51.0874 10.2802 51.7646 10.8854 52.2401 11.6634C52.73 12.4271 52.9749 13.342 52.9749 14.4082C52.9749 15.6906 52.6723 16.8432 52.0672 17.8662C51.462 18.8892 50.6335 19.6961 49.5817 20.2868C48.5299 20.8775 47.3196 21.1729 45.9509 21.1729ZM46.167 18.4065C46.8298 18.4065 47.4133 18.248 47.9176 17.931C48.4363 17.5996 48.8397 17.1458 49.1279 16.5695C49.416 15.9931 49.5601 15.3231 49.5601 14.5595C49.5601 13.7815 49.3296 13.1547 48.8685 12.6792C48.4075 12.2038 47.7591 11.966 46.9234 11.966C46.2606 11.966 45.6699 12.1317 45.1512 12.4631C44.6469 12.7801 44.2435 13.2267 43.9409 13.8031C43.6527 14.3794 43.5087 15.0494 43.5087 15.813C43.5087 16.6055 43.7392 17.2394 44.2003 17.7149C44.6613 18.176 45.3169 18.4065 46.167 18.4065ZM70.9196 9.19963C71.8994 9.19963 72.7278 9.40855 73.405 9.82639C74.0822 10.2298 74.5649 10.8278 74.8531 11.6202C75.1412 12.4127 75.1628 13.3924 74.9179 14.5595L73.6428 21H70.2712L71.5031 14.7972C71.6904 13.9327 71.6328 13.27 71.3302 12.8089C71.0277 12.3478 70.5018 12.1173 69.7525 12.1173C68.9601 12.1173 68.3045 12.355 67.7858 12.8305C67.2671 13.2916 66.9069 14.0264 66.7052 15.035L65.5165 21H62.145L63.3769 14.7972C63.5498 13.9327 63.4849 13.27 63.1824 12.8089C62.8942 12.3478 62.3755 12.1173 61.6263 12.1173C60.8338 12.1173 60.1782 12.355 59.6595 12.8305C59.1408 13.2916 58.7734 14.0408 58.5573 15.0782L57.3902 21H54.0187L56.3312 9.37253H59.5299L58.9247 12.3334L58.406 11.6634C58.9391 10.8278 59.6019 10.2082 60.3944 9.80478C61.1868 9.40135 62.0297 9.19963 62.923 9.19963C63.6434 9.19963 64.2918 9.3293 64.8681 9.58865C65.4445 9.848 65.9127 10.237 66.2729 10.7557C66.6475 11.26 66.8637 11.894 66.9213 12.6576L65.6246 12.3334C66.2009 11.3104 66.9357 10.5324 67.829 9.99929C68.7367 9.46618 69.7669 9.19963 70.9196 9.19963ZM84.1211 21.1729C83.1845 21.1729 82.3632 20.9928 81.6572 20.6326C80.9656 20.2724 80.4469 19.7177 80.1012 18.9684C79.7554 18.2048 79.6329 17.225 79.7337 16.0291C79.8202 14.646 80.1012 13.4429 80.5766 12.4199C81.0665 11.3969 81.7293 10.6044 82.565 10.0425C83.4006 9.48059 84.3876 9.19963 85.5259 9.19963C86.4336 9.19963 87.2693 9.40855 88.0329 9.82639C88.7965 10.2298 89.4089 10.8206 89.87 11.5986C90.331 12.3622 90.5616 13.2988 90.5616 14.4082C90.5616 15.3736 90.3959 16.2741 90.0645 17.1098C89.7331 17.931 89.272 18.6442 88.6813 19.2494C88.1049 19.8545 87.4278 20.33 86.6497 20.6758C85.8717 21.0072 85.0288 21.1729 84.1211 21.1729ZM75.8435 25.1928L78.9989 9.37253H82.1976L81.7221 11.6851L80.9873 15.143L80.5334 18.601L79.215 25.1928H75.8435ZM83.732 18.3849C84.4092 18.3849 85 18.2264 85.5043 17.9094C86.0085 17.578 86.4048 17.1314 86.6929 16.5695C86.9955 15.9931 87.1468 15.3231 87.1468 14.5595C87.1468 13.7671 86.9163 13.1403 86.4552 12.6792C85.9941 12.2182 85.3386 11.9876 84.4885 11.9876C83.8401 11.9876 83.2566 12.1533 82.7379 12.4847C82.2192 12.8017 81.8157 13.2484 81.5276 13.8247C81.2394 14.3866 81.0953 15.0494 81.0953 15.813C81.0953 16.6055 81.3259 17.2322 81.7869 17.6933C82.248 18.1544 82.8964 18.3849 83.732 18.3849ZM97.7894 21.1729C96.5791 21.1729 95.5273 20.9568 94.634 20.5245C93.7551 20.0923 93.0707 19.4871 92.5808 18.7091C92.0909 17.931 91.846 17.0161 91.846 15.9643C91.846 14.6676 92.1341 13.5149 92.7105 12.5063C93.3012 11.4833 94.1081 10.6765 95.1311 10.0857C96.1684 9.495 97.3571 9.19963 98.6971 9.19963C99.8354 9.19963 100.815 9.41575 101.636 9.848C102.458 10.2658 103.092 10.8566 103.538 11.6202C103.999 12.3694 104.23 13.27 104.23 14.3218C104.23 14.6243 104.208 14.9269 104.165 15.2295C104.136 15.5321 104.093 15.8202 104.035 16.094H94.4178L94.7636 14.1273H102.458L101.074 14.7324C101.19 14.084 101.154 13.5437 100.966 13.1115C100.779 12.6648 100.477 12.3262 100.059 12.0957C99.6408 11.8508 99.1366 11.7283 98.5458 11.7283C97.811 11.7283 97.1842 11.9084 96.6655 12.2686C96.1612 12.6144 95.7794 13.0971 95.5201 13.7166C95.2607 14.3362 95.1311 15.035 95.1311 15.813C95.1311 16.7063 95.376 17.3763 95.8659 17.823C96.3702 18.2552 97.1266 18.4713 98.1352 18.4713C98.7259 18.4713 99.295 18.3777 99.8426 18.1904C100.39 18.0031 100.858 17.7365 101.247 17.3907L102.652 19.6168C101.975 20.1499 101.211 20.5461 100.361 20.8055C99.5256 21.0504 98.6683 21.1729 97.7894 21.1729ZM105.179 21L107.492 9.37253H110.69L110.02 12.6792L109.718 11.7283C110.237 10.7917 110.914 10.1362 111.749 9.76155C112.585 9.38694 113.587 9.19963 114.754 9.19963L114.148 12.3118C114.004 12.2974 113.867 12.2902 113.738 12.2902C113.623 12.2758 113.5 12.2686 113.37 12.2686C112.376 12.2686 111.562 12.5135 110.928 13.0034C110.309 13.4933 109.891 14.2857 109.675 15.3808L108.551 21H105.179Z" fill="black"/>
<path d="M117.945 21.2593C116.792 21.2593 115.798 21.0648 114.962 20.6758C114.127 20.2868 113.478 19.7249 113.017 18.99L115.33 16.7856C115.632 17.2899 116.007 17.6861 116.454 17.9743C116.9 18.248 117.412 18.3849 117.988 18.3849C118.651 18.3849 119.191 18.1976 119.609 17.823C120.041 17.4484 120.337 16.8504 120.495 16.0291L121.943 8.68093H116.627L117.21 5.87132H125.985L123.975 15.8562C123.715 17.1818 123.319 18.2408 122.786 19.0333C122.267 19.8113 121.605 20.3804 120.798 20.7407C119.991 21.0864 119.04 21.2593 117.945 21.2593ZM132.253 21.1729C131.071 21.1729 130.041 20.9568 129.162 20.5245C128.283 20.0923 127.599 19.4871 127.109 18.7091C126.633 17.931 126.396 17.0161 126.396 15.9643C126.396 14.6676 126.698 13.5149 127.303 12.5063C127.909 11.4833 128.737 10.6765 129.789 10.0857C130.855 9.495 132.065 9.19963 133.42 9.19963C134.616 9.19963 135.646 9.41575 136.51 9.848C137.389 10.2802 138.066 10.8854 138.542 11.6634C139.032 12.4271 139.277 13.342 139.277 14.4082C139.277 15.6906 138.974 16.8432 138.369 17.8662C137.764 18.8892 136.935 19.6961 135.884 20.2868C134.832 20.8775 133.622 21.1729 132.253 21.1729ZM132.469 18.4065C133.132 18.4065 133.715 18.248 134.219 17.931C134.738 17.5996 135.142 17.1458 135.43 16.5695C135.718 15.9931 135.862 15.3231 135.862 14.5595C135.862 13.7815 135.631 13.1547 135.17 12.6792C134.709 12.2038 134.061 11.966 133.225 11.966C132.562 11.966 131.972 12.1317 131.453 12.4631C130.949 12.7801 130.545 13.2267 130.243 13.8031C129.955 14.3794 129.811 15.0494 129.811 15.813C129.811 16.6055 130.041 17.2394 130.502 17.7149C130.963 18.176 131.619 18.4065 132.469 18.4065ZM140.321 21L143.519 4.9636H146.891L145.529 11.7283L144.621 15.1214L144.103 18.1039L143.519 21H140.321ZM147.755 21.1729C146.862 21.1729 146.077 21.0144 145.399 20.6974C144.737 20.3804 144.218 19.8978 143.843 19.2494C143.483 18.5866 143.303 17.7581 143.303 16.764C143.303 15.7122 143.433 14.7252 143.692 13.8031C143.951 12.8809 144.333 12.0813 144.838 11.4041C145.342 10.7125 145.954 10.1722 146.675 9.78316C147.409 9.39414 148.238 9.19963 149.16 9.19963C150.068 9.19963 150.903 9.40855 151.667 9.82639C152.431 10.2298 153.043 10.8206 153.504 11.5986C153.965 12.3622 154.196 13.2988 154.196 14.4082C154.196 15.3736 154.03 16.2741 153.699 17.1098C153.367 17.931 152.906 18.6442 152.315 19.2494C151.739 19.8545 151.062 20.33 150.284 20.6758C149.506 21.0072 148.663 21.1729 147.755 21.1729ZM147.366 18.3849C148.043 18.3849 148.634 18.2264 149.138 17.9094C149.643 17.578 150.039 17.1314 150.327 16.5695C150.63 15.9931 150.781 15.3231 150.781 14.5595C150.781 13.7671 150.55 13.1403 150.089 12.6792C149.628 12.2182 148.973 11.9876 148.123 11.9876C147.474 11.9876 146.891 12.1533 146.372 12.4847C145.853 12.8017 145.45 13.2484 145.162 13.8247C144.874 14.3866 144.729 15.0494 144.729 15.813C144.729 16.6055 144.96 17.2322 145.421 17.6933C145.882 18.1544 146.531 18.3849 147.366 18.3849ZM159.478 21.1729C158.455 21.1729 157.49 21.0576 156.582 20.8271C155.689 20.5966 154.997 20.3084 154.508 19.9626L155.804 17.5204C156.309 17.8518 156.921 18.1183 157.641 18.3201C158.376 18.5218 159.111 18.6226 159.846 18.6226C160.638 18.6226 161.215 18.5218 161.575 18.3201C161.935 18.1183 162.115 17.8446 162.115 17.4988C162.115 17.225 161.964 17.0233 161.661 16.8936C161.359 16.7496 160.977 16.6343 160.516 16.5478C160.055 16.4614 159.558 16.3605 159.025 16.2453C158.506 16.13 158.009 15.9715 157.533 15.7698C157.072 15.5537 156.69 15.2511 156.388 14.8621C156.1 14.4586 155.956 13.9327 155.956 13.2844C155.956 12.4055 156.201 11.6634 156.69 11.0583C157.195 10.4531 157.886 9.99208 158.765 9.6751C159.659 9.35812 160.667 9.19963 161.791 9.19963C162.598 9.19963 163.383 9.28608 164.147 9.45898C164.91 9.63188 165.559 9.86961 166.092 10.1722L164.882 12.636C164.334 12.2902 163.758 12.0597 163.153 11.9444C162.562 11.8147 161.993 11.7499 161.445 11.7499C160.653 11.7499 160.076 11.8652 159.716 12.0957C159.37 12.3118 159.197 12.5784 159.197 12.8954C159.197 13.1691 159.342 13.3852 159.63 13.5437C159.932 13.6878 160.314 13.8103 160.775 13.9111C161.236 13.9976 161.733 14.0984 162.266 14.2137C162.8 14.3146 163.297 14.4731 163.758 14.6892C164.219 14.8909 164.593 15.1863 164.882 15.5753C165.184 15.9499 165.335 16.4614 165.335 17.1098C165.335 17.9887 165.076 18.7379 164.557 19.3575C164.053 19.9626 163.361 20.4165 162.483 20.719C161.604 21.0216 160.602 21.1729 159.478 21.1729Z" fill="#3B82F6"/>
<rect y="0.852112" width="24.6661" height="24.6661" rx="1.12119" fill="#3B82F6"/>
<path d="M11.0848 21.3042C10.0618 21.3042 9.11803 21.1169 8.25353 20.7423C7.40345 20.3532 6.70465 19.8057 6.15713 19.0997L8.10225 16.7656C8.52009 17.3131 8.95954 17.7309 9.4206 18.0191C9.88167 18.2929 10.3788 18.4297 10.9119 18.4297C12.3383 18.4297 13.0515 17.5941 13.0515 15.9227V8.72576H7.73484V5.91615H16.5311V15.7282C16.5311 17.6013 16.07 18.9989 15.1479 19.921C14.2258 20.8431 12.8714 21.3042 11.0848 21.3042Z" fill="white"/>
</svg>
